<svg width="1009" height="273" viewBox="0 0 1009 273" fill="none" xmlns="http://www.w3.org/2000/svg">
<path d="M29.1028 157.918C29.1028 155.562 29.3802 153.216 29.9291 150.925L36.8857 121.9C38.9462 113.303 44.6938 106.052 52.5938 102.084L216.578 19.7153C220.183 17.9043 224.117 16.8392 228.144 16.5837L489.468 0L772.723 16.672C776.085 16.8699 779.39 17.6326 782.499 18.9281L961.046 93.328C970.311 97.1884 977.031 105.426 978.952 115.277L982.723 134.61C983.819 140.228 986.499 145.416 990.448 149.56L1000.3 159.898C1007 166.932 1009.88 176.777 1008.02 186.314L1002.28 215.87C1001.41 220.377 1001.58 225.026 1002.78 229.457L1007.78 247.875C1012.94 266.876 998.711 285.613 979.022 285.738L30.9697 291.765C11.9159 291.886 -2.42194 274.445 1.38339 255.774L4.96345 238.209C5.67236 234.731 6.99294 231.406 8.86376 228.389L24.5982 203.018C27.5427 198.27 29.1028 192.794 29.1028 187.207V157.918Z" fill="#FDDBBB"/>
</svg>
