<svg width="1020" height="539" viewBox="0 0 1020 539" fill="none" xmlns="http://www.w3.org/2000/svg">
<path d="M23.3419 291.452L33.1317 215.241C34.0197 208.328 37.2871 201.94 42.3727 197.174L211.381 38.7836C216.054 34.4036 222.007 31.6345 228.368 30.8813L485.783 0.402512C488.042 0.135038 490.324 0.125368 492.585 0.373687L772.508 31.1142C778.025 31.72 783.266 33.8443 787.647 37.2508L971.281 180.02C977.73 185.034 981.856 192.461 982.705 200.585L989.422 264.832C989.805 268.502 990.863 272.07 992.541 275.356L1012.86 315.141C1015.49 320.305 1016.58 326.124 1015.98 331.891L1007.14 416.769C1006.88 419.242 1006.93 421.738 1007.29 424.198L1019 504.678C1021.64 522.776 1007.6 539 989.316 539H30C13.4315 539 2.43411e-06 525.569 1.96387e-06 509L1.37797e-07 444.66C4.65263e-08 441.445 0.517059 438.25 1.53138 435.198L21.8105 374.186C22.8249 371.135 23.3419 367.94 23.3419 364.724V291.452Z" fill="#CDC1FF" fill-opacity="0.8"/>
</svg>
