<svg width="452" height="565" viewBox="0 0 452 565" fill="none" xmlns="http://www.w3.org/2000/svg">
<path d="M32.9927 60.3568C32.9927 29.0133 61.4993 5.39816 92.2956 11.2299L285.387 47.7946L345.568 61.3587C405.916 74.9605 446.034 132.21 438.222 193.576L394.588 536.337C393.936 541.457 389.495 545.239 384.337 545.068L42.6614 533.742C37.2704 533.563 32.9927 529.141 32.9927 523.747V60.3568Z" fill="#9694FF" fill-opacity="0.9"/>
<path d="M86.5087 562.263L364.109 524.447C367.952 523.923 370.953 520.865 371.404 517.013L421.931 85.5036C425.503 54.9942 400.173 28.8908 369.57 31.5444L155.055 50.1454L99.5982 64.0823C43.1387 78.2713 5.34744 131.369 10.4337 189.362L18.8072 284.836L77.0514 555.629C77.9856 559.972 82.1068 562.863 86.5087 562.263Z" stroke="#3D3BF3" stroke-width="3"/>
</svg>
