<svg width="349" height="440" viewBox="0 0 349 440" fill="none" xmlns="http://www.w3.org/2000/svg">
<path d="M25.4745 60.4534C25.4745 29.0778 54.0361 5.45506 84.8546 11.3412L220.354 37.2205L242.923 42.3511C303.115 56.0344 343.108 113.15 335.378 174.392L304.925 415.666C304.278 420.792 299.833 424.581 294.669 424.408L35.1403 415.731C29.7506 415.551 25.4745 411.129 25.4745 405.737V60.4534Z" fill="#F28585" fill-opacity="0.7"/>
<path d="M323.879 80.0209C327.421 49.5128 302.074 23.4365 271.477 26.1124L119.781 39.3793L99.2722 44.5776C42.9622 58.8506 5.30099 111.838 10.3334 169.711L14.8604 221.772L59.3944 430.601C60.323 434.955 64.4539 437.855 68.8645 437.249L279.342 408.33C283.184 407.802 286.181 404.741 286.628 400.89L323.879 80.0209Z" stroke="#F28585" stroke-width="3"/>
</svg>
