<svg width="182" height="102" viewBox="0 0 182 102" fill="none" xmlns="http://www.w3.org/2000/svg">
<path d="M85.2449 32.0157C94.633 41.362 111.678 43.1134 117.866 35.3676L119.579 33.2231C127.4 23.4336 149.841 27.2508 159.015 39.9308L164.928 48.1053C170.542 55.8653 168.745 64.0315 160.642 67.5796L131.284 80.4345C128.536 81.638 125.227 82.2271 121.643 82.1509L65.001 80.9467C58.5708 80.81 51.751 78.5463 46.326 74.7478L37.0938 68.2835C26.703 61.008 24.3071 50.3035 31.7715 44.5044L54.3946 26.9284C61.8284 21.1531 76.8163 23.6247 85.2449 32.0157V32.0157Z" fill="#FFF6E3" fill-opacity="0.9"/>
<path d="M29.0878 72.8911L129.804 79.4825C137.043 79.9562 143.891 76.1551 147.318 69.7608L151.172 62.5696C157.73 50.3336 148.975 35.5029 135.093 35.3322L132.88 35.305C131.469 35.2876 130.063 35.1314 128.683 34.8387L77.1367 23.9047C69.8019 22.3489 62.2532 25.3742 58.0231 31.5651L54.7368 36.3747C52.5972 39.5062 49.6673 42.0159 46.2444 43.6492L25.38 53.6055C20.2628 56.0474 18.139 62.2083 20.6645 67.2847C22.2739 70.5198 25.4821 72.6552 29.0878 72.8911Z" stroke="#FA7070" stroke-width="3"/>
</svg>
