<svg width="182" height="102" viewBox="0 0 182 102" fill="none" xmlns="http://www.w3.org/2000/svg">
<path d="M85.2449 32.0159C94.633 41.3621 111.678 43.1135 117.866 35.3677L119.579 33.2232C127.4 23.4337 149.841 27.2509 159.015 39.931L164.928 48.1054C170.542 55.8654 168.745 64.0316 160.642 67.5797L131.284 80.4346C128.536 81.6381 125.227 82.2272 121.643 82.151L65.001 80.9468C58.5708 80.8101 51.751 78.5464 46.326 74.7479L37.0938 68.2836C26.703 61.0081 24.3071 50.3036 31.7715 44.5045L54.3946 26.9285C61.8284 21.1532 76.8163 23.6248 85.2449 32.0159V32.0159Z" fill="#F6AD7B" fill-opacity="0.9"/>
<path d="M29.0878 72.891L129.804 79.4824C137.043 79.9561 143.891 76.1549 147.318 69.7607L151.172 62.5695C157.73 50.3335 148.975 35.5028 135.093 35.3321L132.88 35.3049C131.469 35.2875 130.063 35.1313 128.683 34.8385L77.1367 23.9046C69.8019 22.3487 62.2532 25.3741 58.0231 31.565L54.7368 36.3746C52.5972 39.506 49.6673 42.0158 46.2444 43.6491L25.38 53.6054C20.2628 56.0472 18.139 62.2082 20.6645 67.2845C22.2739 70.5197 25.4821 72.6551 29.0878 72.891Z" stroke="#FA7070" stroke-width="3"/>
</svg>
