<svg width="187" height="108" viewBox="0 0 187 108" fill="none" xmlns="http://www.w3.org/2000/svg">
<path d="M87.389 33.9003C96.9603 43.7612 114.651 45.5005 121.052 37.21L122.768 34.9885C130.674 24.7482 153.409 28.52 162.541 41.5872L169.585 51.6657C175.054 59.4924 173.189 67.7659 165.131 71.4203L134.558 85.2844C131.762 86.5524 128.391 87.1752 124.749 87.0966L66.3737 85.8374C59.953 85.6988 53.188 83.3958 47.8555 79.533L36.9328 71.6208C26.8479 64.3155 24.6317 53.6004 31.983 47.689L55.5669 28.7241C63.2725 22.5277 78.8023 25.0538 87.389 33.9003V33.9003Z" fill="#9694FF" fill-opacity="0.9"/>
<path d="M30.2047 77.4297L133.171 84.3592C140.515 84.8535 147.453 80.9475 150.839 74.4125L156.049 64.3579C162.385 52.132 153.62 37.5172 139.851 37.3479L136.263 37.3038C134.804 37.2858 133.351 37.1194 131.925 36.8072L79.0772 25.2279C71.6054 23.5908 63.8966 26.7208 59.681 33.1034L55.9841 38.7005C53.8859 41.8772 50.9819 44.4398 47.5688 46.1263L26.0986 56.7358C20.7319 59.3877 18.4989 65.8647 21.0912 71.2605C22.7957 74.8086 26.2773 77.1654 30.2047 77.4297Z" stroke="#FA7070" stroke-width="3"/>
</svg>
