<svg width="174" height="75" viewBox="0 0 174 75" fill="none" xmlns="http://www.w3.org/2000/svg">
<path d="M75.098 13.9003C84.6693 23.7612 102.36 25.5005 108.761 17.21L110.477 14.9885C118.383 4.74818 141.118 8.51998 150.25 21.5872L157.294 31.6657C162.763 39.4924 160.898 47.7659 152.84 51.4203L122.267 65.2844C119.471 66.5524 116.1 67.1752 112.458 67.0966L54.0827 65.8374C47.662 65.6988 40.897 63.3958 35.5645 59.533L24.6418 51.6208C14.5569 44.3155 12.3407 33.6004 19.6919 27.689L43.2759 8.72412C50.9815 2.52772 66.5112 5.0538 75.098 13.9003V13.9003Z" fill="#9694FF" fill-opacity="0.9"/>
<path d="M17.9137 57.4297L120.88 64.3592C128.224 64.8535 135.162 60.9475 138.548 54.4125L143.758 44.3579C150.094 32.132 141.329 17.5172 127.56 17.3479L123.972 17.3038C122.513 17.2858 121.06 17.1194 119.634 16.8072L66.7862 5.22793C59.3144 3.59083 51.6056 6.72084 47.3899 13.1034L43.6931 18.7005C41.5949 21.8772 38.6909 24.4398 35.2778 26.1263L13.8076 36.7358C8.44088 39.3877 6.20793 45.8647 8.80014 51.2605C10.5047 54.8086 13.9863 57.1654 17.9137 57.4297Z" stroke="#FA7070" stroke-width="3"/>
<path d="M39.0049 46.6347L33.8486 46.6369L33.8546 32.0915L39.0535 32.0892C40.5166 32.0886 41.7759 32.3793 42.8316 32.9612C43.8872 33.5384 44.6989 34.369 45.2666 35.453C45.8391 36.5371 46.125 37.8343 46.1244 39.3447C46.1237 40.8599 45.8367 42.1621 45.2634 43.2513C44.6947 44.3406 43.8776 45.1766 42.812 45.7595C41.7512 46.3423 40.4821 46.6341 39.0049 46.6347ZM36.925 44.0006L38.8781 43.9998C39.7872 43.9994 40.552 43.8381 41.1724 43.5159C41.7975 43.1889 42.2664 42.6844 42.5792 42.0025C42.8967 41.3158 43.0557 40.4303 43.0562 39.346C43.0566 38.2712 42.8984 37.393 42.5814 36.7113C42.2692 36.0296 41.803 35.5279 41.1829 35.2062C40.5628 34.8845 39.7982 34.7238 38.8891 34.7242L36.9288 34.7251L36.925 44.0006ZM48.3994 46.6307L48.4054 32.0852L58.2066 32.081L58.2055 34.6165L51.4797 34.6194L51.4782 38.0853L57.6998 38.0827L57.6988 40.6182L51.4772 40.6208L51.4757 44.0938L58.23 44.0909L58.2289 46.6265L48.3994 46.6307ZM72.8177 32.0748L72.8117 46.6202L70.1554 46.6213L63.8311 37.4692L63.7246 37.4693L63.7208 46.6241L60.6455 46.6254L60.6515 32.08L63.3504 32.0788L69.625 41.2238L69.7528 41.2238L69.7566 32.0761L72.8177 32.0748ZM74.8035 34.6094L74.8046 32.0739L86.7506 32.0688L86.7495 34.6043L82.2964 34.6062L82.2914 46.6161L79.2517 46.6174L79.2566 34.6075L74.8035 34.6094ZM91.7932 32.0666L91.7872 46.6121L88.7119 46.6134L88.7179 32.0679L91.7932 32.0666ZM102.212 36.2454C102.156 35.6725 101.912 35.2275 101.481 34.9105C101.051 34.5934 100.466 34.4351 99.7272 34.4354C99.2253 34.4356 98.8015 34.5068 98.4558 34.649C98.1101 34.7864 97.8449 34.9783 97.6601 35.2246C97.4801 35.4709 97.39 35.7503 97.3899 36.0628C97.3803 36.3232 97.4347 36.5505 97.553 36.7445C97.676 36.9386 97.844 37.1066 98.057 37.2486C98.27 37.3858 98.5162 37.5064 98.7955 37.6105C99.0748 37.7098 99.3731 37.7949 99.6903 37.8658L100.997 38.1777C101.631 38.3195 102.214 38.5086 102.744 38.7452C103.274 38.9817 103.733 39.2727 104.121 39.6181C104.51 39.9636 104.81 40.3707 105.023 40.8394C105.24 41.308 105.352 41.8454 105.356 42.4514C105.351 43.3416 105.123 44.1135 104.673 44.7671C104.228 45.4159 103.584 45.9205 102.741 46.2807C101.903 46.6361 100.892 46.8141 99.7079 46.8146C98.5337 46.8151 97.511 46.6357 96.6399 46.2762C95.7736 45.9167 95.0968 45.3843 94.6094 44.679C94.1267 43.969 93.8737 43.0908 93.8505 42.0444L96.8264 42.0431C96.8593 42.5308 96.9988 42.938 97.2449 43.2646C97.4957 43.5864 97.8294 43.8301 98.246 43.9957C98.6673 44.1565 99.1432 44.2368 99.6735 44.2365C100.194 44.2363 100.646 44.1604 101.03 44.0087C101.418 43.857 101.719 43.6462 101.932 43.3762C102.146 43.1062 102.252 42.796 102.252 42.4457C102.252 42.1189 102.156 41.8444 101.961 41.6219C101.772 41.3995 101.493 41.2102 101.124 41.0541C100.759 40.898 100.312 40.7561 99.7815 40.6285L98.1978 40.2315C96.9716 39.9337 96.0036 39.4677 95.2936 38.8336C94.5836 38.1994 94.2312 37.3449 94.2364 36.2701C94.232 35.3894 94.4667 34.6199 94.9405 33.9616C95.419 33.3032 96.075 32.7892 96.9085 32.4195C97.742 32.0499 98.689 31.8648 99.7496 31.8643C100.829 31.8639 101.771 32.0481 102.576 32.4171C103.386 32.7861 104.015 33.2995 104.465 33.9575C104.914 34.6154 105.146 35.3777 105.16 36.2441L102.212 36.2454ZM106.874 34.5957L106.875 32.0602L118.821 32.055L118.82 34.5905L114.367 34.5924L114.362 46.6024L111.322 46.6037L111.327 34.5938L106.874 34.5957ZM121.512 46.5993L118.217 46.6007L123.244 32.0531L127.207 32.0514L132.215 46.5947L128.92 46.5962L125.281 35.3761L125.167 35.3762L121.512 46.5993ZM121.308 40.8821L129.092 40.8787L129.091 43.2793L121.307 43.2827L121.308 40.8821Z" fill="white"/>
</svg>
