<svg width="804" height="75" viewBox="0 0 804 75" fill="none" xmlns="http://www.w3.org/2000/svg">
<path d="M19.998 5.35073C23.7964 0.698796 29.4842 -2 35.4898 -2H792.132C809.032 -2 818.314 17.6626 807.573 30.7108L777.805 66.8743C771.575 74.4424 760.778 76.38 752.305 71.4505L745.927 67.7396C741.781 65.3272 736.906 64.4854 732.191 65.3678L657.558 79.3342C655.205 79.7745 652.792 79.7888 650.434 79.3765L562.5 64L433.471 52.673C432.16 52.5579 430.841 52.5725 429.534 52.7164L328.997 63.7802C327.669 63.9264 326.33 63.9391 324.999 63.8181L202.376 52.6705C201.128 52.5571 199.872 52.5612 198.625 52.6827L84.6031 63.795C83.2049 63.9313 81.7963 63.9199 80.4005 63.7609L17.8989 56.6444C2.17704 54.8543 -5.33803 36.3803 4.66975 24.1236L19.998 5.35073Z" fill="#9694FF" fill-opacity="0.9"/>
</svg>
