<svg width="804" height="75" viewBox="0 0 804 75" fill="none" xmlns="http://www.w3.org/2000/svg">
<path d="M19.998 7.35073C23.7964 2.6988 29.4842 0 35.4898 0H792.132C809.032 0 818.314 19.6626 807.573 32.7108L777.805 68.8743C771.575 76.4424 760.778 78.38 752.305 73.4505L745.927 69.7396C741.781 67.3272 736.906 66.4855 732.191 67.3678L657.558 81.3342C655.205 81.7745 652.792 81.7888 650.434 81.3765L562.5 66L433.471 54.673C432.16 54.5579 430.841 54.5725 429.534 54.7164L328.997 65.7802C327.669 65.9264 326.33 65.9391 324.999 65.8181L202.376 54.6705C201.128 54.5571 199.872 54.5612 198.625 54.6827L84.6031 65.795C83.2049 65.9313 81.7963 65.9199 80.4005 65.7609L17.8989 58.6444C2.17704 56.8543 -5.33803 38.3803 4.66975 26.1236L19.998 7.35073Z" fill="#FFF6E3" fill-opacity="0.9"/>
</svg>
