<svg width="327" height="359" viewBox="0 0 327 359" fill="none" xmlns="http://www.w3.org/2000/svg">
<path d="M119.337 54H100.945V47.996H106.037V33.48C103.351 29.0213 100.691 24.588 98.0566 20.18C95.4726 15.7213 92.8632 11.2627 90.2286 6.804H82.5526V0.799996H100.945V6.804H97.9046C99.7792 9.89467 101.629 12.9853 103.453 16.076C105.277 19.1667 107.126 22.2573 109.001 25.348L109.837 27.704H109.913L110.825 25.348L121.769 6.804H118.805V0.799996H137.197V6.804H129.521C126.886 11.2627 124.251 15.7213 121.617 20.18C119.033 24.6387 116.423 29.0973 113.789 33.556V47.996H119.337V54ZM168.589 50.276C167.221 51.644 165.6 52.7333 163.725 53.544C161.851 54.304 159.849 54.684 157.721 54.684C155.593 54.684 153.592 54.304 151.717 53.544C149.893 52.7333 148.297 51.644 146.929 50.276C145.561 48.908 144.472 47.3373 143.661 45.564C142.901 43.7907 142.521 41.84 142.521 39.712C142.521 37.6853 142.901 35.76 143.661 33.936C144.472 32.112 145.561 30.516 146.929 29.148C148.297 27.8307 149.893 26.792 151.717 26.032C153.592 25.2213 155.593 24.816 157.721 24.816C159.849 24.816 161.851 25.2213 163.725 26.032C165.6 26.792 167.221 27.8307 168.589 29.148C169.957 30.516 171.021 32.112 171.781 33.936C172.592 35.76 172.997 37.6853 172.997 39.712C172.997 41.7893 172.592 43.74 171.781 45.564C171.021 47.3373 169.957 48.908 168.589 50.276ZM151.413 45.944C152.173 46.7547 153.085 47.388 154.149 47.844C155.213 48.3 156.353 48.528 157.569 48.528C158.785 48.528 159.925 48.3 160.989 47.844C162.053 47.388 162.991 46.7547 163.801 45.944C164.612 45.184 165.245 44.272 165.701 43.208C166.157 42.144 166.385 41.004 166.385 39.788C166.385 38.572 166.157 37.432 165.701 36.368C165.245 35.304 164.612 34.3667 163.801 33.556C162.991 32.7453 162.053 32.112 160.989 31.656C159.925 31.2 158.785 30.972 157.569 30.972C156.353 30.972 155.213 31.2 154.149 31.656C153.085 32.112 152.173 32.7453 151.413 33.556C150.603 34.3667 149.969 35.304 149.513 36.368C149.057 37.432 148.829 38.572 148.829 39.788C148.829 41.004 149.057 42.144 149.513 43.208C149.969 44.272 150.603 45.184 151.413 45.944ZM205.503 46.704C204.489 49.136 202.843 51.0867 200.563 52.556C198.333 53.9747 195.851 54.684 193.115 54.684C190.125 54.684 187.769 53.8987 186.047 52.328C184.324 50.7573 183.412 48.7053 183.311 46.172V31.504H178.295V25.5H189.619V43.284C189.72 44.652 190.201 45.8427 191.063 46.856C191.975 47.8187 193.393 48.3507 195.319 48.452C196.636 48.452 197.877 48.224 199.043 47.768C200.259 47.312 201.323 46.6787 202.235 45.868C203.147 45.0573 203.881 44.0947 204.439 42.98C204.996 41.8653 205.275 40.6493 205.275 39.332V31.504H200.259V25.5H211.583V48.68H216.295V54H205.275V50.124L205.503 46.704ZM238.511 54H221.639V47.996H227.415V31.504H222.399V25.5H232.963L233.267 29.452C233.368 30.668 233.393 31.2253 233.343 31.124C233.343 31.0227 233.393 31.58 233.495 32.796C234.103 31.5293 234.863 30.4147 235.775 29.452C236.737 28.4387 237.725 27.6027 238.739 26.944C239.803 26.2347 240.816 25.7027 241.779 25.348C242.792 24.9933 243.679 24.816 244.439 24.816L243.983 31.048C242.716 31.048 241.525 31.2 240.411 31.504C239.347 31.808 238.409 32.2387 237.599 32.796C236.383 33.6067 235.42 34.6453 234.711 35.912C234.052 37.1787 233.723 38.5973 233.723 40.168V47.996H238.511V54ZM86.8783 127.188C86.169 128.151 85.181 128.961 83.9143 129.62C82.6477 130.279 81.001 130.608 78.9743 130.608C77.0997 130.608 75.301 130.38 73.5783 129.924C71.8557 129.417 70.4877 128.607 69.4743 127.492V120.88H75.0983V123.844C75.7063 124.097 76.289 124.275 76.8463 124.376C77.4543 124.427 78.189 124.452 79.0503 124.452C79.4557 124.452 79.861 124.401 80.2663 124.3C80.7223 124.199 81.1277 124.021 81.4823 123.768C81.7357 123.565 81.9383 123.312 82.0903 123.008C82.293 122.653 82.3943 122.223 82.3943 121.716C82.3943 120.804 82.1157 120.12 81.5583 119.664C81.0517 119.157 80.3423 118.752 79.4303 118.448C78.569 118.093 77.6063 117.764 76.5423 117.46C75.4783 117.105 74.465 116.624 73.5023 116.016C72.5903 115.459 71.8303 114.648 71.2223 113.584C70.6143 112.52 70.3103 111.101 70.3103 109.328C70.3103 107.757 70.6143 106.44 71.2223 105.376C71.8303 104.312 72.5903 103.451 73.5023 102.792C74.4143 102.083 75.4023 101.576 76.4663 101.272C77.5303 100.968 78.493 100.816 79.3543 100.816C79.861 100.816 80.469 100.867 81.1783 100.968C81.9383 101.069 82.6983 101.247 83.4583 101.5C84.2183 101.753 84.953 102.083 85.6623 102.488C86.4223 102.893 87.081 103.4 87.6383 104.008V110.62H82.0143V107.352C81.609 107.251 81.229 107.175 80.8743 107.124C80.5197 107.023 80.1397 106.972 79.7343 106.972C79.177 106.972 78.6957 107.048 78.2903 107.2C77.885 107.301 77.5557 107.453 77.3023 107.656C77.049 107.909 76.8717 108.213 76.7703 108.568C76.669 108.872 76.6437 109.227 76.6943 109.632C76.7957 110.24 77.1757 110.747 77.8343 111.152C78.493 111.507 79.2783 111.861 80.1903 112.216C81.0517 112.571 81.989 112.976 83.0023 113.432C84.0157 113.888 84.953 114.445 85.8143 115.104C86.6757 115.813 87.385 116.7 87.9423 117.764C88.4997 118.777 88.7783 120.069 88.7783 121.64C88.7783 122.349 88.6263 123.211 88.3223 124.224C88.069 125.237 87.5877 126.225 86.8783 127.188ZM110.669 130H93.7967V123.996H99.5727V107.504H94.5567V101.5H105.121V102.184C105.222 103.4 105.298 104.515 105.349 105.528C105.45 106.491 105.551 107.58 105.653 108.796C106.717 106.364 108.313 104.464 110.441 103.096C112.619 101.677 115.153 100.917 118.041 100.816C120.827 100.816 123.057 101.525 124.729 102.944C126.451 104.312 127.465 106.136 127.769 108.416C128.883 106.085 130.505 104.261 132.633 102.944C134.761 101.627 137.218 100.917 140.005 100.816C142.994 100.816 145.35 101.601 147.073 103.172C148.795 104.743 149.707 106.795 149.809 109.328V123.996H154.597V130H137.725V123.996H143.501V112.216C143.399 110.848 142.893 109.683 141.981 108.72C141.119 107.707 139.726 107.149 137.801 107.048C136.483 107.048 135.217 107.276 134.001 107.732C132.835 108.188 131.797 108.821 130.885 109.632C129.973 110.443 129.238 111.405 128.681 112.52C128.123 113.635 127.845 114.851 127.845 116.168V123.996H132.633V130H115.761V123.996H121.537V112.216C121.435 110.848 120.929 109.683 120.017 108.72C119.155 107.707 117.762 107.149 115.837 107.048C114.519 107.048 113.253 107.276 112.037 107.732C110.871 108.188 109.833 108.821 108.921 109.632C108.009 110.443 107.274 111.405 106.717 112.52C106.159 113.635 105.881 114.851 105.881 116.168V123.996H110.669V130ZM176.798 130H159.926V123.996H165.246V107.504H159.926V101.5H171.554V123.996H176.798V130ZM172.39 90.48C172.39 91.6453 171.984 92.608 171.174 93.368C170.363 94.0773 169.476 94.432 168.514 94.432C167.5 94.432 166.588 94.0773 165.778 93.368C164.967 92.608 164.562 91.6453 164.562 90.48C164.562 89.3147 164.967 88.352 165.778 87.592C166.588 86.832 167.5 86.452 168.514 86.452C169.476 86.452 170.363 86.832 171.174 87.592C171.984 88.352 172.39 89.3147 172.39 90.48ZM198.989 130H182.117V123.996H187.893V79.004H182.877V73H194.201V123.996H198.989V130ZM219.508 106.972C218.09 106.972 216.798 107.225 215.632 107.732C214.518 108.188 213.555 108.847 212.744 109.708C212.136 110.417 211.63 111.228 211.224 112.14C210.87 113.052 210.667 114.04 210.616 115.104C212.998 114.243 215.354 113.381 217.684 112.52C220.066 111.608 222.447 110.721 224.828 109.86C224.119 108.999 223.308 108.315 222.396 107.808C221.535 107.251 220.572 106.972 219.508 106.972ZM229.16 126.656C227.894 127.923 226.45 128.911 224.828 129.62C223.207 130.329 221.434 130.684 219.508 130.684C217.38 130.684 215.379 130.304 213.504 129.544C211.68 128.733 210.084 127.644 208.716 126.276C207.348 124.908 206.259 123.337 205.448 121.564C204.688 119.74 204.308 117.789 204.308 115.712C204.308 113.685 204.688 111.76 205.448 109.936C206.259 108.112 207.348 106.516 208.716 105.148C210.084 103.831 211.68 102.792 213.504 102.032C215.379 101.221 217.38 100.816 219.508 100.816C221.079 100.816 222.574 101.145 223.992 101.804C225.462 102.412 226.779 103.273 227.944 104.388C229.059 105.503 230.047 106.845 230.908 108.416C231.77 109.936 232.428 111.608 232.884 113.432C229.439 114.699 225.994 115.965 222.548 117.232C219.154 118.499 215.734 119.765 212.288 121.032C213.048 122.096 214.036 122.957 215.252 123.616C216.519 124.224 217.938 124.528 219.508 124.528C220.674 124.528 221.738 124.325 222.7 123.92C223.663 123.515 224.524 122.907 225.284 122.096L229.16 126.656ZM256.839 127.188C256.13 128.151 255.142 128.961 253.875 129.62C252.609 130.279 250.962 130.608 248.935 130.608C247.061 130.608 245.262 130.38 243.539 129.924C241.817 129.417 240.449 128.607 239.435 127.492V120.88H245.059V123.844C245.667 124.097 246.25 124.275 246.807 124.376C247.415 124.427 248.15 124.452 249.011 124.452C249.417 124.452 249.822 124.401 250.227 124.3C250.683 124.199 251.089 124.021 251.443 123.768C251.697 123.565 251.899 123.312 252.051 123.008C252.254 122.653 252.355 122.223 252.355 121.716C252.355 120.804 252.077 120.12 251.519 119.664C251.013 119.157 250.303 118.752 249.391 118.448C248.53 118.093 247.567 117.764 246.503 117.46C245.439 117.105 244.426 116.624 243.463 116.016C242.551 115.459 241.791 114.648 241.183 113.584C240.575 112.52 240.271 111.101 240.271 109.328C240.271 107.757 240.575 106.44 241.183 105.376C241.791 104.312 242.551 103.451 243.463 102.792C244.375 102.083 245.363 101.576 246.427 101.272C247.491 100.968 248.454 100.816 249.315 100.816C249.822 100.816 250.43 100.867 251.139 100.968C251.899 101.069 252.659 101.247 253.419 101.5C254.179 101.753 254.914 102.083 255.623 102.488C256.383 102.893 257.042 103.4 257.599 104.008V110.62H251.975V107.352C251.57 107.251 251.19 107.175 250.835 107.124C250.481 107.023 250.101 106.972 249.695 106.972C249.138 106.972 248.657 107.048 248.251 107.2C247.846 107.301 247.517 107.453 247.263 107.656C247.01 107.909 246.833 108.213 246.731 108.568C246.63 108.872 246.605 109.227 246.655 109.632C246.757 110.24 247.137 110.747 247.795 111.152C248.454 111.507 249.239 111.861 250.151 112.216C251.013 112.571 251.95 112.976 252.963 113.432C253.977 113.888 254.914 114.445 255.775 115.104C256.637 115.813 257.346 116.7 257.903 117.764C258.461 118.777 258.739 120.069 258.739 121.64C258.739 122.349 258.587 123.211 258.283 124.224C258.03 125.237 257.549 126.225 256.839 127.188ZM150.459 206H139.135V204.48C139.135 204.125 139.135 203.872 139.135 203.72C139.135 203.568 139.135 203.315 139.135 202.96C139.084 203.112 138.831 203.391 138.375 203.796C137.919 204.201 137.286 204.607 136.475 205.012C135.614 205.468 134.6 205.848 133.435 206.152C132.27 206.507 130.952 206.684 129.483 206.684C127.355 206.684 125.354 206.304 123.479 205.544C121.604 204.733 119.983 203.644 118.615 202.276C117.247 200.908 116.158 199.337 115.347 197.564C114.587 195.74 114.207 193.815 114.207 191.788C114.207 189.812 114.587 187.912 115.347 186.088C116.158 184.264 117.247 182.668 118.615 181.3C119.983 179.932 121.604 178.843 123.479 178.032C125.354 177.221 127.355 176.816 129.483 176.816C132.27 176.816 134.474 177.323 136.095 178.336C137.716 179.299 138.73 180.211 139.135 181.072C139.186 180.565 139.236 180.008 139.287 179.4C139.388 178.741 139.439 178.108 139.439 177.5H144.683V199.996H150.459V206ZM129.483 182.972C128.115 182.972 126.848 183.225 125.683 183.732C124.518 184.188 123.555 184.847 122.795 185.708C122.086 186.468 121.528 187.355 121.123 188.368C120.768 189.381 120.591 190.496 120.591 191.712C120.591 193.131 120.87 194.448 121.427 195.664C122.035 196.88 122.846 197.893 123.859 198.704C124.568 199.261 125.404 199.717 126.367 200.072C127.33 200.376 128.368 200.528 129.483 200.528C130.75 200.528 131.89 200.325 132.903 199.92C133.967 199.515 134.879 198.957 135.639 198.248C136.5 197.437 137.159 196.475 137.615 195.36C138.122 194.245 138.375 193.029 138.375 191.712C138.375 190.395 138.122 189.179 137.615 188.064C137.159 186.949 136.526 186.012 135.715 185.252C134.904 184.543 133.967 183.985 132.903 183.58C131.89 183.175 130.75 182.972 129.483 182.972ZM172.641 206H155.769V199.996H161.545V183.504H156.529V177.5H167.093L167.397 181.452C167.499 182.668 167.524 183.225 167.473 183.124C167.473 183.023 167.524 183.58 167.625 184.796C168.233 183.529 168.993 182.415 169.905 181.452C170.868 180.439 171.856 179.603 172.869 178.944C173.933 178.235 174.947 177.703 175.909 177.348C176.923 176.993 177.809 176.816 178.569 176.816L178.113 183.048C176.847 183.048 175.656 183.2 174.541 183.504C173.477 183.808 172.54 184.239 171.729 184.796C170.513 185.607 169.551 186.645 168.841 187.912C168.183 189.179 167.853 190.597 167.853 192.168V199.996H172.641V206ZM199.098 182.972C197.68 182.972 196.388 183.225 195.222 183.732C194.108 184.188 193.145 184.847 192.334 185.708C191.726 186.417 191.22 187.228 190.814 188.14C190.46 189.052 190.257 190.04 190.206 191.104C192.588 190.243 194.944 189.381 197.274 188.52C199.656 187.608 202.037 186.721 204.418 185.86C203.709 184.999 202.898 184.315 201.986 183.808C201.125 183.251 200.162 182.972 199.098 182.972ZM208.75 202.656C207.484 203.923 206.04 204.911 204.418 205.62C202.797 206.329 201.024 206.684 199.098 206.684C196.97 206.684 194.969 206.304 193.094 205.544C191.27 204.733 189.674 203.644 188.306 202.276C186.938 200.908 185.849 199.337 185.038 197.564C184.278 195.74 183.898 193.789 183.898 191.712C183.898 189.685 184.278 187.76 185.038 185.936C185.849 184.112 186.938 182.516 188.306 181.148C189.674 179.831 191.27 178.792 193.094 178.032C194.969 177.221 196.97 176.816 199.098 176.816C200.669 176.816 202.164 177.145 203.582 177.804C205.052 178.412 206.369 179.273 207.534 180.388C208.649 181.503 209.637 182.845 210.498 184.416C211.36 185.936 212.018 187.608 212.474 189.432C209.029 190.699 205.584 191.965 202.138 193.232C198.744 194.499 195.324 195.765 191.878 197.032C192.638 198.096 193.626 198.957 194.842 199.616C196.109 200.224 197.528 200.528 199.098 200.528C200.264 200.528 201.328 200.325 202.29 199.92C203.253 199.515 204.114 198.907 204.874 198.096L208.75 202.656ZM17.8211 282H0.949063V275.996H6.26906V259.504H0.949063V253.5H12.5771V275.996H17.8211V282ZM13.4131 242.48C13.4131 243.645 13.0077 244.608 12.1971 245.368C11.3864 246.077 10.4997 246.432 9.53706 246.432C8.52373 246.432 7.61173 246.077 6.80106 245.368C5.9904 244.608 5.58506 243.645 5.58506 242.48C5.58506 241.315 5.9904 240.352 6.80106 239.592C7.61173 238.832 8.52373 238.452 9.53706 238.452C10.4997 238.452 11.3864 238.832 12.1971 239.592C13.0077 240.352 13.4131 241.315 13.4131 242.48ZM40.0125 282H23.1405V275.996H28.9165V259.504H23.9005V253.5H34.4645V254.184C34.5658 255.4 34.6418 256.515 34.6925 257.528C34.7938 258.491 34.8951 259.58 34.9965 260.796C36.0605 258.364 37.6565 256.464 39.7845 255.096C41.9631 253.677 44.4965 252.917 47.3845 252.816C50.1711 252.816 52.4005 253.525 54.0725 254.944C55.7951 256.312 56.8085 258.136 57.1125 260.416C58.2271 258.085 59.8485 256.261 61.9765 254.944C64.1045 253.627 66.5618 252.917 69.3485 252.816C72.3378 252.816 74.6938 253.601 76.4165 255.172C78.1391 256.743 79.0511 258.795 79.1525 261.328V275.996H83.9405V282H67.0685V275.996H72.8445V264.216C72.7431 262.848 72.2365 261.683 71.3245 260.72C70.4631 259.707 69.0698 259.149 67.1445 259.048C65.8271 259.048 64.5605 259.276 63.3445 259.732C62.1791 260.188 61.1405 260.821 60.2285 261.632C59.3165 262.443 58.5818 263.405 58.0245 264.52C57.4671 265.635 57.1885 266.851 57.1885 268.168V275.996H61.9765V282H45.1045V275.996H50.8805V264.216C50.7791 262.848 50.2725 261.683 49.3605 260.72C48.4991 259.707 47.1058 259.149 45.1805 259.048C43.8631 259.048 42.5965 259.276 41.3805 259.732C40.2151 260.188 39.1765 260.821 38.2645 261.632C37.3525 262.443 36.6178 263.405 36.0605 264.52C35.5031 265.635 35.2245 266.851 35.2245 268.168V275.996H40.0125V282ZM90.0294 301V294.996H95.1214V259.504H89.2694V253.5H100.365C100.416 254.159 100.467 254.792 100.517 255.4C100.568 255.957 100.619 256.515 100.669 257.072C101.176 256.363 102.24 255.476 103.861 254.412C105.483 253.348 107.636 252.816 110.321 252.816C112.449 252.816 114.451 253.221 116.325 254.032C118.2 254.792 119.821 255.856 121.189 257.224C122.557 258.592 123.621 260.188 124.381 262.012C125.192 263.785 125.597 265.685 125.597 267.712C125.597 269.739 125.192 271.664 124.381 273.488C123.621 275.312 122.557 276.908 121.189 278.276C119.821 279.644 118.2 280.733 116.325 281.544C114.451 282.304 112.449 282.684 110.321 282.684C108.903 282.684 107.636 282.532 106.521 282.228C105.407 281.924 104.444 281.569 103.633 281.164C102.823 280.759 102.265 280.455 101.961 280.252C101.657 279.999 101.429 279.771 101.277 279.568C101.328 279.72 101.353 279.897 101.353 280.1C101.404 280.303 101.429 280.455 101.429 280.556V294.996H106.901V301H90.0294ZM110.321 258.972C108.953 258.972 107.712 259.2 106.597 259.656C105.483 260.112 104.545 260.745 103.785 261.556C103.025 262.316 102.443 263.228 102.037 264.292C101.632 265.356 101.429 266.496 101.429 267.712C101.429 269.029 101.657 270.271 102.113 271.436C102.62 272.551 103.329 273.513 104.241 274.324C105.001 274.983 105.888 275.515 106.901 275.92C107.965 276.325 109.105 276.528 110.321 276.528C111.537 276.528 112.652 276.351 113.665 275.996C114.679 275.591 115.565 275.059 116.325 274.4C117.237 273.64 117.947 272.677 118.453 271.512C118.96 270.347 119.213 269.08 119.213 267.712C119.213 266.293 118.935 265.027 118.377 263.912C117.871 262.747 117.161 261.759 116.249 260.948C115.489 260.34 114.603 259.859 113.589 259.504C112.576 259.149 111.487 258.972 110.321 258.972ZM156.974 278.276C155.606 279.644 153.985 280.733 152.11 281.544C150.235 282.304 148.234 282.684 146.106 282.684C143.978 282.684 141.977 282.304 140.102 281.544C138.278 280.733 136.682 279.644 135.314 278.276C133.946 276.908 132.857 275.337 132.046 273.564C131.286 271.791 130.906 269.84 130.906 267.712C130.906 265.685 131.286 263.76 132.046 261.936C132.857 260.112 133.946 258.516 135.314 257.148C136.682 255.831 138.278 254.792 140.102 254.032C141.977 253.221 143.978 252.816 146.106 252.816C148.234 252.816 150.235 253.221 152.11 254.032C153.985 254.792 155.606 255.831 156.974 257.148C158.342 258.516 159.406 260.112 160.166 261.936C160.977 263.76 161.382 265.685 161.382 267.712C161.382 269.789 160.977 271.74 160.166 273.564C159.406 275.337 158.342 276.908 156.974 278.276ZM139.798 273.944C140.558 274.755 141.47 275.388 142.534 275.844C143.598 276.3 144.738 276.528 145.954 276.528C147.17 276.528 148.31 276.3 149.374 275.844C150.438 275.388 151.375 274.755 152.186 273.944C152.997 273.184 153.63 272.272 154.086 271.208C154.542 270.144 154.77 269.004 154.77 267.788C154.77 266.572 154.542 265.432 154.086 264.368C153.63 263.304 152.997 262.367 152.186 261.556C151.375 260.745 150.438 260.112 149.374 259.656C148.31 259.2 147.17 258.972 145.954 258.972C144.738 258.972 143.598 259.2 142.534 259.656C141.47 260.112 140.558 260.745 139.798 261.556C138.987 262.367 138.354 263.304 137.898 264.368C137.442 265.432 137.214 266.572 137.214 267.788C137.214 269.004 137.442 270.144 137.898 271.208C138.354 272.272 138.987 273.184 139.798 273.944ZM183.552 282H166.68V275.996H172.456V259.504H167.44V253.5H178.004L178.308 257.452C178.409 258.668 178.434 259.225 178.384 259.124C178.384 259.023 178.434 259.58 178.536 260.796C179.144 259.529 179.904 258.415 180.816 257.452C181.778 256.439 182.766 255.603 183.78 254.944C184.844 254.235 185.857 253.703 186.82 253.348C187.833 252.993 188.72 252.816 189.48 252.816L189.024 259.048C187.757 259.048 186.566 259.2 185.452 259.504C184.388 259.808 183.45 260.239 182.64 260.796C181.424 261.607 180.461 262.645 179.752 263.912C179.093 265.179 178.764 266.597 178.764 268.168V275.996H183.552V282ZM213.2 282H201.192V259.656H194.808V253.5H201.192V234.956H207.5V253.5H214.948V259.656H207.5V275.996H213.2V282ZM256.517 282H245.193V280.48C245.193 280.125 245.193 279.872 245.193 279.72C245.193 279.568 245.193 279.315 245.193 278.96C245.143 279.112 244.889 279.391 244.433 279.796C243.977 280.201 243.344 280.607 242.533 281.012C241.672 281.468 240.659 281.848 239.493 282.152C238.328 282.507 237.011 282.684 235.541 282.684C233.413 282.684 231.412 282.304 229.537 281.544C227.663 280.733 226.041 279.644 224.673 278.276C223.305 276.908 222.216 275.337 221.405 273.564C220.645 271.74 220.265 269.815 220.265 267.788C220.265 265.812 220.645 263.912 221.405 262.088C222.216 260.264 223.305 258.668 224.673 257.3C226.041 255.932 227.663 254.843 229.537 254.032C231.412 253.221 233.413 252.816 235.541 252.816C238.328 252.816 240.532 253.323 242.153 254.336C243.775 255.299 244.788 256.211 245.193 257.072C245.244 256.565 245.295 256.008 245.345 255.4C245.447 254.741 245.497 254.108 245.497 253.5H250.741V275.996H256.517V282ZM235.541 258.972C234.173 258.972 232.907 259.225 231.741 259.732C230.576 260.188 229.613 260.847 228.853 261.708C228.144 262.468 227.587 263.355 227.181 264.368C226.827 265.381 226.649 266.496 226.649 267.712C226.649 269.131 226.928 270.448 227.485 271.664C228.093 272.88 228.904 273.893 229.917 274.704C230.627 275.261 231.463 275.717 232.425 276.072C233.388 276.376 234.427 276.528 235.541 276.528C236.808 276.528 237.948 276.325 238.961 275.92C240.025 275.515 240.937 274.957 241.697 274.248C242.559 273.437 243.217 272.475 243.673 271.36C244.18 270.245 244.433 269.029 244.433 267.712C244.433 266.395 244.18 265.179 243.673 264.064C243.217 262.949 242.584 262.012 241.773 261.252C240.963 260.543 240.025 259.985 238.961 259.58C237.948 259.175 236.808 258.972 235.541 258.972ZM278.7 282H261.828V275.996H267.604V259.504H262.588V253.5H273.152V254.184C273.253 255.4 273.329 256.515 273.38 257.528C273.481 258.491 273.583 259.58 273.684 260.796C274.697 258.364 276.319 256.439 278.548 255.02C280.828 253.551 283.336 252.816 286.072 252.816C289.061 252.816 291.417 253.601 293.14 255.172C294.863 256.743 295.775 258.795 295.876 261.328V275.996H300.588V282H283.716V275.996H289.568V264.216C289.467 262.848 288.96 261.683 288.048 260.72C287.187 259.707 285.793 259.149 283.868 259.048C282.551 259.048 281.284 259.276 280.068 259.732C278.903 260.188 277.864 260.821 276.952 261.632C276.04 262.443 275.305 263.405 274.748 264.52C274.191 265.635 273.912 266.851 273.912 268.168V275.996H278.7V282ZM324.306 282H312.298V259.656H305.914V253.5H312.298V234.956H318.606V253.5H326.054V259.656H318.606V275.996H324.306V282ZM108.255 358H96.2471V335.656H89.8631V329.5H96.2471V310.956H102.555V329.5H110.003V335.656H102.555V351.996H108.255V358ZM141.388 354.276C140.02 355.644 138.399 356.733 136.524 357.544C134.649 358.304 132.648 358.684 130.52 358.684C128.392 358.684 126.391 358.304 124.516 357.544C122.692 356.733 121.096 355.644 119.728 354.276C118.36 352.908 117.271 351.337 116.46 349.564C115.7 347.791 115.32 345.84 115.32 343.712C115.32 341.685 115.7 339.76 116.46 337.936C117.271 336.112 118.36 334.516 119.728 333.148C121.096 331.831 122.692 330.792 124.516 330.032C126.391 329.221 128.392 328.816 130.52 328.816C132.648 328.816 134.649 329.221 136.524 330.032C138.399 330.792 140.02 331.831 141.388 333.148C142.756 334.516 143.82 336.112 144.58 337.936C145.391 339.76 145.796 341.685 145.796 343.712C145.796 345.789 145.391 347.74 144.58 349.564C143.82 351.337 142.756 352.908 141.388 354.276ZM124.212 349.944C124.972 350.755 125.884 351.388 126.948 351.844C128.012 352.3 129.152 352.528 130.368 352.528C131.584 352.528 132.724 352.3 133.788 351.844C134.852 351.388 135.789 350.755 136.6 349.944C137.411 349.184 138.044 348.272 138.5 347.208C138.956 346.144 139.184 345.004 139.184 343.788C139.184 342.572 138.956 341.432 138.5 340.368C138.044 339.304 137.411 338.367 136.6 337.556C135.789 336.745 134.852 336.112 133.788 335.656C132.724 335.2 131.584 334.972 130.368 334.972C129.152 334.972 128.012 335.2 126.948 335.656C125.884 336.112 124.972 336.745 124.212 337.556C123.401 338.367 122.768 339.304 122.312 340.368C121.856 341.432 121.628 342.572 121.628 343.788C121.628 345.004 121.856 346.144 122.312 347.208C122.768 348.272 123.401 349.184 124.212 349.944ZM201.087 350.704C200.073 353.136 198.427 355.087 196.147 356.556C193.917 357.975 191.435 358.684 188.699 358.684C185.709 358.684 183.353 357.899 181.631 356.328C179.908 354.757 178.996 352.705 178.895 350.172V335.504H173.879V329.5H185.203V347.284C185.304 348.652 185.785 349.843 186.647 350.856C187.559 351.819 188.977 352.351 190.903 352.452C192.22 352.452 193.461 352.224 194.627 351.768C195.843 351.312 196.907 350.679 197.819 349.868C198.731 349.057 199.465 348.095 200.023 346.98C200.58 345.865 200.859 344.649 200.859 343.332V335.504H195.843V329.5H207.167V352.68H211.879V358H200.859V354.124L201.087 350.704ZM235.539 355.188C234.829 356.151 233.841 356.961 232.575 357.62C231.308 358.279 229.661 358.608 227.635 358.608C225.76 358.608 223.961 358.38 222.239 357.924C220.516 357.417 219.148 356.607 218.135 355.492V348.88H223.759V351.844C224.367 352.097 224.949 352.275 225.507 352.376C226.115 352.427 226.849 352.452 227.711 352.452C228.116 352.452 228.521 352.401 228.927 352.3C229.383 352.199 229.788 352.021 230.143 351.768C230.396 351.565 230.599 351.312 230.751 351.008C230.953 350.653 231.055 350.223 231.055 349.716C231.055 348.804 230.776 348.12 230.219 347.664C229.712 347.157 229.003 346.752 228.091 346.448C227.229 346.093 226.267 345.764 225.203 345.46C224.139 345.105 223.125 344.624 222.163 344.016C221.251 343.459 220.491 342.648 219.883 341.584C219.275 340.52 218.971 339.101 218.971 337.328C218.971 335.757 219.275 334.44 219.883 333.376C220.491 332.312 221.251 331.451 222.163 330.792C223.075 330.083 224.063 329.576 225.127 329.272C226.191 328.968 227.153 328.816 228.015 328.816C228.521 328.816 229.129 328.867 229.839 328.968C230.599 329.069 231.359 329.247 232.119 329.5C232.879 329.753 233.613 330.083 234.323 330.488C235.083 330.893 235.741 331.4 236.299 332.008V338.62H230.675V335.352C230.269 335.251 229.889 335.175 229.535 335.124C229.18 335.023 228.8 334.972 228.395 334.972C227.837 334.972 227.356 335.048 226.951 335.2C226.545 335.301 226.216 335.453 225.963 335.656C225.709 335.909 225.532 336.213 225.431 336.568C225.329 336.872 225.304 337.227 225.355 337.632C225.456 338.24 225.836 338.747 226.495 339.152C227.153 339.507 227.939 339.861 228.851 340.216C229.712 340.571 230.649 340.976 231.663 341.432C232.676 341.888 233.613 342.445 234.475 343.104C235.336 343.813 236.045 344.7 236.603 345.764C237.16 346.777 237.439 348.069 237.439 349.64C237.439 350.349 237.287 351.211 236.983 352.224C236.729 353.237 236.248 354.225 235.539 355.188Z" fill="white"/>
</svg>
